<svg xmlns="http://www.w3.org/2000/svg" viewBox="0 0 1400 900">
<defs>
 <linearGradient id="bg" x1="0" y1="0" x2="1" y2="1"><stop stop-color="#050a18"/><stop offset=".55" stop-color="#090d22"/><stop offset="1" stop-color="#12051d"/></linearGradient>
 <linearGradient id="accent" x1="0" x2="1"><stop stop-color="#d84bff"/><stop offset=".55" stop-color="#6b6cff"/><stop offset="1" stop-color="#2bd9ff"/></linearGradient>
 <filter id="glow"><feGaussianBlur stdDeviation="12"/></filter>
</defs>
<rect width="1400" height="900" rx="34" fill="url(#bg)"/>
<rect x="24" y="24" width="1352" height="852" rx="26" fill="none" stroke="#253064"/>
<rect x="24" y="24" width="230" height="852" rx="26" fill="#070b1c"/>
<circle cx="75" cy="76" r="25" fill="none" stroke="#b55cff" stroke-width="3"/>
<text x="115" y="84" fill="#f6f8ff" font-size="28" font-family="Arial" font-weight="700">Vision<tspan fill="#6ddcff">AI</tspan></text>
<text x="52" y="150" fill="#b7bfd6" font-size="17" font-family="Arial">HOME</text>
<text x="52" y="205" fill="#b7bfd6" font-size="17" font-family="Arial">GENERATE CAPTION</text>
<text x="52" y="260" fill="#b7bfd6" font-size="17" font-family="Arial">ABOUT PROJECT</text>
<text x="52" y="315" fill="#b7bfd6" font-size="17" font-family="Arial">MODEL DETAILS</text>
<text x="52" y="370" fill="#b7bfd6" font-size="17" font-family="Arial">DATASET</text>
<rect x="42" y="425" width="175" height="44" rx="14" fill="#351567" stroke="#c74fff"/>
<text x="60" y="453" fill="#fff" font-size="16" font-family="Arial" font-weight="700">EXAMPLES</text>
<text x="52" y="520" fill="#b7bfd6" font-size="17" font-family="Arial">CONTACT</text>
<path d="M25 760 C80 700 130 820 230 750" fill="none" stroke="#7d43ff" stroke-width="3" opacity=".65"/>
<path d="M25 790 C100 730 140 850 240 780" fill="none" stroke="#22c9ff" stroke-width="2" opacity=".45"/>
<text x="42" y="830" fill="#f1f3ff" font-size="19" font-family="Arial" font-weight="700">Images Speak Too!</text>

<text x="292" y="82" fill="#8994b5" font-size="17" font-family="Arial">Upload an image and let AI describe it...</text>
<text x="292" y="145" fill="#ef8cff" font-size="15" font-family="Arial" font-weight="700">IMAGE CAPTION GENERATOR</text>
<text x="292" y="200" fill="#ffffff" font-size="40" font-family="Arial" font-weight="700">Turn Images into <tspan fill="url(#accent)">Meaningful Captions</tspan></text>
<text x="292" y="235" fill="#aeb8d3" font-size="18" font-family="Arial">CNN + LSTM image captioning trained on the Flickr8k dataset.</text>
<g font-family="Arial" font-size="13" font-weight="700">
 <rect x="292" y="260" width="80" height="32" rx="16" fill="#21133c" stroke="#d84bff"/><text x="310" y="281" fill="#f6b8ff">VGG16</text>
 <rect x="382" y="260" width="65" height="32" rx="16" fill="#21133c" stroke="#9c65ff"/><text x="402" y="281" fill="#d6c4ff">LSTM</text>
 <rect x="457" y="260" width="88" height="32" rx="16" fill="#101d3b" stroke="#4f83ff"/><text x="476" y="281" fill="#a8c8ff">FLICKR8K</text>
 <rect x="555" y="260" width="125" height="32" rx="16" fill="#101d3b" stroke="#2bd9ff"/><text x="575" y="281" fill="#9eeeff">BLEU 0.64</text>
</g>

<rect x="292" y="320" width="355" height="330" rx="20" fill="#091326" stroke="#293d75"/>
<text x="318" y="360" fill="#ffffff" font-size="21" font-family="Arial" font-weight="700">UPLOAD IMAGE</text>
<rect x="318" y="392" width="303" height="190" rx="16" fill="#071020" stroke="#52628d" stroke-dasharray="8 8"/>
<circle cx="470" cy="455" r="34" fill="none" stroke="#78a7ff" stroke-width="4"/>
<path d="M450 460 l20 -24 22 26" fill="none" stroke="#78a7ff" stroke-width="4"/>
<text x="390" y="520" fill="#aab6d2" font-size="16" font-family="Arial">Choose an image</text>
<rect x="375" y="600" width="190" height="34" rx="17" fill="url(#accent)"/>
<text x="421" y="622" fill="#fff" font-size="14" font-family="Arial" font-weight="700">GENERATE</text>

<rect x="665" y="320" width="315" height="330" rx="20" fill="#091326" stroke="#293d75"/>
<text x="690" y="360" fill="#fff" font-size="21" font-family="Arial" font-weight="700">INPUT IMAGE</text>
<rect x="690" y="390" width="265" height="190" rx="14" fill="#1b2d42"/>
<rect x="708" y="408" width="229" height="154" rx="12" fill="#8bb1c6"/>
<circle cx="824" cy="482" r="48" fill="#c98d4d"/>
<circle cx="807" cy="470" r="8" fill="#1b1520"/><circle cx="840" cy="470" r="8" fill="#1b1520"/>
<path d="M800 515 Q825 540 850 515" fill="none" stroke="#241722" stroke-width="7"/>
<path d="M710 530 Q820 455 936 535" fill="none" stroke="#e7f6ff" stroke-width="18" opacity=".75"/>
<text x="732" y="612" fill="#7f8cab" font-size="14" font-family="Arial">Selected image</text>

<rect x="998" y="320" width="350" height="330" rx="20" fill="#091326" stroke="#293d75"/>
<text x="1025" y="360" fill="#fff" font-size="21" font-family="Arial" font-weight="700">GENERATED CAPTION</text>
<rect x="1025" y="395" width="295" height="105" rx="14" fill="#071020" stroke="#354a7b"/>
<text x="1045" y="430" fill="#f4f6ff" font-size="16" font-family="Arial">“A dog is running on the beach</text>
<text x="1045" y="457" fill="#f4f6ff" font-size="16" font-family="Arial">with ocean waves in the background.”</text>
<text x="1025" y="535" fill="#a879ff" font-size="15" font-family="Arial" font-weight="700">MODEL INFORMATION</text>
<text x="1025" y="570" fill="#8f9bb7" font-size="14" font-family="Arial">Feature Extractor: VGG16</text>
<text x="1025" y="595" fill="#8f9bb7" font-size="14" font-family="Arial">Caption Generator: LSTM</text>
<text x="1025" y="620" fill="#8f9bb7" font-size="14" font-family="Arial">Dataset: Flickr8k</text>

<rect x="292" y="680" width="1056" height="140" rx="20" fill="#091326" stroke="#293d75"/>
<text x="318" y="718" fill="#fff" font-size="19" font-family="Arial" font-weight="700">DEEP LEARNING PIPELINE</text>
<g font-family="Arial" font-size="13" font-weight="700">
 <rect x="318" y="750" width="175" height="40" rx="12" fill="#171d3a"/><text x="356" y="775" fill="#9fdcff">IMAGE INPUT</text>
 <path d="M500 770 H530" stroke="#7c70ff" stroke-width="3"/>
 <rect x="540" y="750" width="175" height="40" rx="12" fill="#171d3a"/><text x="575" y="775" fill="#c7a6ff">VGG16 FEATURES</text>
 <path d="M722 770 H752" stroke="#7c70ff" stroke-width="3"/>
 <rect x="762" y="750" width="175" height="40" rx="12" fill="#171d3a"/><text x="810" y="775" fill="#ff9fea">LSTM</text>
 <path d="M944 770 H974" stroke="#7c70ff" stroke-width="3"/>
 <rect x="984" y="750" width="175" height="40" rx="12" fill="#171d3a"/><text x="1019" y="775" fill="#7feaff">CAPTION</text>
 <path d="M1166 770 H1196" stroke="#7c70ff" stroke-width="3"/>
 <rect x="1206" y="750" width="112" height="40" rx="12" fill="#32155b"/><text x="1231" y="775" fill="#fff">BLEU .64</text>
</g>
</svg>